# xmcd
#
# Track frame offsets: 
#        150
#        27730
#        38475
#        58957
#        73812
#        85965
#        118537
#        135637
#        154032
#        164453
#        177972
#        194025
#        209926
#        237439
#        257227
#
# Disc length: 3673 seconds
#
# Revision: 8
# Processed by: cddbd v1.5.1PL0 Copyright (c) Steve Scherf et al.
# Submitted via: ExactAudioCopy v0.95b2
#
DISCID=ea0e570f
DTITLE=Various Artist - House of Blues - Essential Guitar Blues [CD1)
DYEAR=1997
DGENRE=Blues
TTITLE0=Snooks Eaglin - Josephine
TTITLE1=Pee Wee Crayton - Do Unto Others
TTITLE2=Matt "Guitar" Murphy - Buck's Boogie
TTITLE3=Hubert Sumlin - Bring Your Love To Me
TTITLE4=Otis Rush - Double Trouble
TTITLE5=Big Jack Johnson - Catfish Blues
TTITLE6=Robert Lockwood Jr. with Otis Spann - Little Boy Blue
TTITLE7=Albert Collins - Melt Down
TTITLE8=Buddy Guy - First Time I Met the Blues
TTITLE9=Muddy Waters - Rollin' and Tumblin'
TTITLE10=Robert Nighthawk - Black Angel Blues
TTITLE11=Hound Dog Taylor - Ain't Got Nobody
TTITLE12=Lurrie Bell - Blues All Around Me
TTITLE13=Magic Slim - 1823 S. Michigan Avenue
TTITLE14=Mississippi Fred Mcdowall - Red Cross Store
EXTD=LABEL =Platinum Entertainment, Inc.\nID =5141613012\nUPC =7514
EXTD=16-1301-25\nCOPYRIGHT =1997
EXTT0=
EXTT1=
EXTT2=
EXTT3=
EXTT4=
EXTT5=
EXTT6=
EXTT7=
EXTT8=
EXTT9=
EXTT10=
EXTT11=
EXTT12=
EXTT13=
EXTT14=
PLAYORDER=
